<svg height="200" viewBox="0 0 510.021 510.021" width="200"
     xmlns="http://www.w3.org/2000/svg">
    <g>
        <path d="m410.849 229.507c-2.889-7.76-11.531-11.698-19.3-8.805-7.756 2.899-11.694 11.54-8.805 19.3l26.644 71.369c-47.546-.022-26.124-.013-84.737-.037-10.148-.005-18.77 10.88-14.866 21.25 55.594 147.769 43.358 113.501 60.65 166.434 2.601 7.942 11.125 12.156 18.925 9.598 7.87-2.568 12.168-11.046 9.592-18.913l-6.644-20.344c68.137.028 69.444.028 76.294.031l12.155 30.557c2.343 5.882 7.973 9.457 13.935 9.456 10.44.047 17.896-10.601 13.944-20.55-21.164-53.152-2.641-4.411-97.787-259.346zm46.308 209.883c-46.273-.022-28.868-.014-75.151-.034l-12.791-34.004c47.179.013 28.206.006 75.255.027zm-23.884-64.01c-47.708-.028-28.775-.019-75.344-.036l-12.8-34c46.152.017 28.778.01 75.448.029z"
              fill="#ffb454"/>
        <path d="m508.637 488.854c3.949 9.94-3.491 20.597-13.944 20.55-5.962.001-11.593-3.574-13.935-9.456l-12.155-30.557-37.821-.016-11.296-30.004 37.672.018-12.687-34.011-37.789-.017-11.296-30.004 37.887.022-12.696-34.008-37.992-.015-11.296-30.004 38.099.018-26.644-71.369c-2.889-7.76 1.049-16.401 8.805-19.3 7.769-2.893 16.411 1.045 19.3 8.805 95.181 255.031 76.628 206.21 97.788 259.348z"
              fill="#ff8e00"/>
        <path d="m243.139 366.405c-2.209 2.287-58.939 60.945-60.83 62.9v65.7c0 7.94-6.18 14.45-14 14.96-8.083.741-16-5.922-16-14.96v-160.89c0-8.28 6.72-15 15-15 8.326 0 15 6.756 15 15v52.03c.099-.102 37.211-38.472 39.27-40.6 5.812-6.009 15.358-6.05 21.21-.35 5.95 5.76 6.11 15.25.35 21.21z"
              fill="#7e5d40"/>
        <path d="m240.309 343.255v26.08c-4.921 5.085-52.929 54.727-58 59.97v65.7c0 7.94-6.18 14.45-14 14.96v-182.96h12.21c2.403 4.468 1.79 1.434 1.79 59.14 8.234-8.513 32.713-33.824 39.27-40.6 5.01-5.18 12.85-5.97 18.73-2.29z"
              fill="#684d34"/>
        <path d="m359.099 286.845c-12.683 82.314-113.861 116.156-173.48 58.12-23.94 9.662-53.418 5.645-74.27-13.58-52.288 23.199-111.04-15.374-111.04-72.23 0-20.89 8.1-40.46 22.27-55.02-43.323-51.376-20.758-131.896 44.86-151.98 35.271-33.826 85.132-48.155 132.92-36.7 35.359-26.194 85.483-18.23 111.17 17.53 46.8 6.44 83.34 44.08 88.23 91.28 46.158 54.128 24.224 136.951-40.66 162.58z"
              fill="#8DBB34"/>
        <path d="m359.099 286.845c-10.596 68.769-85.075 106.86-146.79 76.85v-355.53c34.686-17.183 76.746-6.466 99.22 24.82 46.8 6.44 83.34 44.08 88.23 91.28 46.158 54.128 24.224 136.951-40.66 162.58z"
              fill="#6B9F3D"/>
        <g fill="#f54400">
            <circle cx="87.304" cy="143" r="15"/>
            <circle cx="135.314" cy="95" r="15"/>
            <circle cx="247.304" cy="79" r="15"/>
            <circle cx="311.304" cy="119" r="15"/>
            <circle cx="151.304" cy="191" r="15"/>
            <circle cx="95.304" cy="255" r="15"/>
            <circle cx="167.304" cy="271" r="15"/>
            <circle cx="270" cy="268" r="15"/>
        </g>
        <g fill="#a62e00">
            <circle cx="20" cy="495" r="15"/>
            <circle cx="98" cy="495" r="15"/>
            <circle cx="290" cy="495" r="15"/>
        </g>
    </g>
</svg>